<?xml version="1.0" standalone="no"?>
<!DOCTYPE svg PUBLIC "-//W3C//DTD SVG 20010904//EN"
 "http://www.w3.org/TR/2001/REC-SVG-20010904/DTD/svg10.dtd">
<svg version="1.0" xmlns="http://www.w3.org/2000/svg"
 width="867.000000pt" height="867.000000pt" viewBox="0 0 867.000000 867.000000"
 preserveAspectRatio="xMidYMid meet">
<metadata>
Created by potrace 1.14, written by Peter Selinger 2001-2017
</metadata>
<g transform="translate(0.000000,867.000000) scale(0.100000,-0.100000)"
fill="#000000" stroke="none">
<path d="M4277 7594 c-1 -1 -69 -4 -151 -8 -81 -3 -151 -8 -155 -10 -3 -2 -35
-7 -69 -10 -370 -39 -837 -194 -1187 -396 -48 -27 -89 -50 -91 -50 -6 0 -269
-183 -279 -194 -5 -6 -28 -24 -50 -40 -22 -17 -71 -57 -110 -91 -38 -34 -85
-75 -104 -91 -283 -243 -594 -702 -769 -1134 -81 -201 -162 -472 -186 -625 -4
-21 -8 -47 -11 -59 -2 -12 -7 -39 -10 -61 -3 -22 -8 -53 -10 -70 -14 -88 -17
-141 -20 -365 -2 -149 2 -294 10 -370 7 -69 10 -128 8 -132 -2 -4 -231 -7
-509 -5 -277 1 -504 -1 -504 -6 0 -4 27 -46 60 -95 33 -48 65 -94 70 -102 6
-8 82 -120 170 -249 88 -128 165 -241 170 -252 9 -15 -14 -53 -127 -218 -269
-392 -344 -503 -339 -509 3 -2 362 -5 797 -5 715 0 793 -1 805 -16 7 -9 34
-43 60 -76 398 -503 942 -880 1565 -1085 163 -53 388 -107 524 -125 28 -4 59
-8 71 -10 258 -39 628 -33 919 16 387 64 812 219 1104 403 22 15 43 26 45 26
12 0 318 219 336 240 3 3 19 16 35 29 57 43 159 136 254 232 106 106 138 142
244 275 l72 91 808 0 c444 0 810 3 813 6 3 3 -32 59 -78 126 -180 261 -354
517 -376 553 l-23 38 44 62 c24 35 101 149 172 253 70 105 136 199 147 211 10
11 18 26 18 32 0 7 5 12 10 12 6 0 10 7 10 15 0 8 5 15 10 15 6 0 10 5 10 10
0 6 4 16 10 23 5 7 21 27 36 45 l26 32 -139 1 c-813 3 -908 5 -907 14 3 20 14
122 19 175 3 30 7 127 11 215 3 88 7 178 8 200 2 36 -3 119 -18 260 -57 532
-279 1091 -610 1535 -39 52 -80 106 -92 120 -12 14 -41 48 -64 75 -93 110
-223 236 -390 379 -209 179 -554 385 -837 499 -149 61 -398 139 -513 161 -14
2 -48 9 -77 15 -29 6 -74 13 -100 17 -26 3 -50 8 -53 9 -3 2 -34 6 -69 10 -34
4 -72 8 -84 11 -12 2 -80 7 -152 10 -71 3 -147 7 -168 8 -20 1 -38 1 -40 0z
m-32 -281 c-57 -8 -139 -35 -199 -65 -132 -66 -252 -237 -258 -364 0 -19 -13
-25 -87 -44 -394 -103 -754 -284 -1026 -517 -41 -35 -77 -63 -81 -63 -9 0
-274 268 -274 277 0 17 224 199 349 282 407 272 883 443 1356 486 39 4 71 7
72 8 1 1 41 3 90 3 48 1 75 0 58 -3z m348 -8 c12 -2 48 -6 79 -10 91 -10 267
-44 392 -75 95 -25 299 -96 406 -143 123 -53 295 -141 321 -163 8 -8 18 -14
22 -14 26 0 326 -216 422 -304 11 -10 30 -25 43 -33 12 -9 22 -19 22 -22 0 -4
-62 -71 -138 -148 l-139 -140 -29 25 c-16 13 -43 36 -59 51 -111 96 -296 220
-455 304 -175 93 -365 163 -587 217 -39 10 -43 14 -53 53 -38 144 -99 234
-215 316 -55 39 -106 60 -195 82 l-75 18 108 -5 c59 -3 117 -7 130 -9z m-173
-280 c80 -40 141 -122 154 -208 13 -79 -52 -223 -118 -263 -80 -48 -193 -54
-273 -13 -82 43 -151 177 -141 274 11 93 79 178 172 217 52 21 158 18 206 -7z
m-575 -500 c65 -117 161 -196 305 -252 l25 -10 -1 -142 c0 -77 -3 -143 -6
-146 -3 -3 -47 -12 -99 -20 -135 -21 -141 -22 -263 -62 -165 -53 -336 -140
-477 -244 -37 -27 -69 -49 -73 -49 -4 0 -110 104 -237 231 -194 194 -228 233
-218 245 20 25 157 132 235 185 198 133 452 249 669 304 50 13 93 24 97 24 3
1 23 -28 43 -64z m1072 40 c219 -58 446 -163 649 -300 103 -70 264 -191 264
-200 0 -2 -106 -108 -235 -238 l-235 -234 -22 19 c-157 136 -465 288 -658 324
-14 2 -38 7 -55 11 -33 7 -61 11 -119 17 -21 3 -41 7 -43 10 -5 4 -8 220 -4
278 1 10 13 19 33 23 110 25 264 163 319 288 7 15 13 27 13 27 1 0 43 -11 93
-25z m-1097 -2013 l-27 -67 -1224 0 -1224 0 1 40 c1 57 13 180 24 245 5 30 11
69 14 85 6 43 32 160 49 225 118 447 326 844 620 1186 l70 82 862 -864 863
-864 -28 -68z m2690 1781 c0 -5 17 -26 38 -48 141 -151 294 -378 412 -615 110
-220 178 -407 235 -645 32 -132 38 -162 50 -252 3 -21 7 -51 10 -68 6 -43 17
-155 18 -190 l2 -30 -199 0 c-125 0 -200 4 -202 10 -1 5 -5 39 -8 75 -36 420
-174 823 -395 1154 -101 152 -113 170 -128 184 -7 8 -26 30 -41 50 -15 20 -42
52 -59 71 l-33 36 137 138 c123 122 163 154 163 130z m-376 -608 c234 -297
395 -683 449 -1075 7 -52 13 -111 13 -130 l-1 -35 -332 0 -332 0 -6 32 c-3 18
-8 48 -10 67 -16 122 -80 325 -148 466 -54 111 -88 168 -158 262 l-58 78 236
236 237 237 23 -29 c14 -16 53 -65 87 -109z m-1962 -37 c3 -11 2 -751 -1 -798
-1 -9 -23 -22 -54 -33 -28 -10 -59 -20 -68 -23 -10 -4 -106 86 -303 282 l-287
288 23 18 c131 105 362 217 498 243 14 3 48 9 75 15 82 16 89 18 101 19 7 0
14 -5 16 -11z m376 -4 c204 -41 419 -134 566 -247 l44 -34 -291 -291 -292
-291 -30 16 c-16 9 -46 22 -65 29 l-35 12 0 411 c-1 336 2 411 13 411 7 0 48
-7 90 -16z m870 -577 c110 -161 199 -390 218 -565 l6 -57 -411 0 -411 0 -6 30
c-4 17 -15 47 -26 69 l-20 38 289 288 c202 203 291 286 299 279 7 -6 34 -42
62 -82z m-1019 -507 c97 -26 167 -117 176 -229 12 -169 -102 -285 -277 -282
-96 1 -177 47 -224 126 -35 60 -44 166 -19 231 51 134 189 196 344 154z
m-2654 -393 c2 -7 6 -48 9 -92 3 -44 10 -107 16 -140 17 -105 37 -95 -190 -94
-110 0 -200 4 -201 7 0 4 -2 15 -4 24 -10 52 -23 161 -29 249 l-4 57 200 0
c143 0 200 -3 203 -11z m946 -1 c0 -13 6 -55 13 -106 5 -37 31 -160 42 -197
l6 -23 -343 3 -344 2 -13 65 c-15 75 -39 259 -35 264 2 1 154 3 338 3 241 0
335 -3 336 -11z m1121 -56 l27 -65 -102 -102 -101 -102 -298 1 -297 1 -24 76
c-24 74 -41 150 -51 222 l-6 37 412 -2 412 -1 28 -65z m1832 40 c-5 -117 -53
-295 -82 -304 -9 -3 -147 -5 -305 -4 l-288 1 -87 86 c-119 117 -118 116 -100
143 8 13 20 42 26 64 l12 41 412 -1 413 -1 -1 -25z m952 -54 c-4 -44 -9 -88
-11 -96 -2 -8 -6 -33 -10 -55 -3 -22 -8 -54 -11 -72 l-6 -32 -348 0 -348 1 18
62 c16 59 36 162 44 231 2 17 4 33 5 36 0 3 152 6 337 6 l336 0 -6 -81z m660
-34 c-3 -65 -8 -128 -11 -142 -3 -14 -6 -37 -7 -52 l-2 -27 -206 2 c-130 1
-204 6 -204 12 8 55 15 111 21 165 3 36 7 74 8 85 1 11 3 32 4 46 l1 27 201 0
201 0 -6 -116z m-5057 -1670 c-7 -9 -27 -30 -47 -47 -33 -28 -35 -28 -48 -10
-7 10 -24 30 -38 45 l-24 27 84 1 c77 1 83 0 73 -16z m701 -217 c246 -164 607
-315 885 -370 98 -20 250 -44 310 -50 38 -4 72 -8 75 -10 3 -2 5 -92 5 -202
l-1 -198 -34 1 c-83 4 -209 16 -255 24 -27 5 -70 12 -95 15 -87 12 -226 44
-344 80 -390 118 -744 313 -1055 579 l-81 69 74 76 c41 42 104 108 141 148
l68 72 96 -79 c53 -43 148 -113 211 -155z m1275 43 l0 -189 -65 6 c-64 6 -91
9 -180 21 -156 20 -406 99 -587 185 -104 49 -293 154 -293 163 0 2 253 3 563
3 l562 0 0 -189z m1370 182 c10 -16 -229 -148 -381 -210 -152 -62 -349 -119
-474 -136 -97 -13 -179 -21 -210 -20 l-35 1 0 186 0 187 548 -1 c301 0 550 -3
552 -7z m735 4 c0 -15 -78 -78 -118 -95 -55 -24 -152 -22 -214 5 -38 16 -108
72 -108 86 0 4 99 8 220 8 121 0 220 -2 220 -4z m-522 -283 c108 -74 271 -112
387 -90 27 5 50 8 51 6 2 -2 -29 -28 -69 -58 -39 -30 -76 -58 -82 -62 -212
-166 -557 -339 -871 -436 -110 -34 -346 -86 -439 -96 -33 -4 -69 -9 -79 -11
-11 -2 -63 -6 -116 -10 l-96 -6 0 201 c0 132 4 201 11 201 12 0 178 18 222 24
127 17 337 70 503 127 117 40 406 178 470 223 19 14 38 25 43 26 4 0 33 -18
65 -39z"/>
<path d="M4176 4480 c-2 -3 -3 -63 -2 -134 l1 -129 128 -1 c77 -1 131 3 135 9
4 5 7 66 7 135 l0 126 -133 0 c-74 -1 -135 -3 -136 -6z"/>
</g>
</svg>
